<?xml version="1.0" encoding="UTF-8"?>
<svg version="1.1" xmlns="http://www.w3.org/2000/svg" width="850" height="850">
<path d="M0 0 C1.72296024 -0.00525911 1.72296024 -0.00525911 3.48072776 -0.01062447 C7.32208745 -0.01991372 11.16329471 -0.01502144 15.00466061 -0.01015663 C17.78969482 -0.0127916 20.57472127 -0.01841656 23.35975116 -0.02388728 C29.41124253 -0.03417094 35.46270192 -0.03703391 41.51420116 -0.03497505 C50.51345299 -0.0319208 59.51266952 -0.04025846 68.51191447 -0.0507243 C85.52193537 -0.07005406 102.5319442 -0.07569215 119.54197479 -0.07683842 C132.68038657 -0.07775799 145.81879362 -0.08187721 158.95720387 -0.08823967 C162.74100126 -0.0900348 166.52479867 -0.09181443 170.30859607 -0.09358943 C171.2493006 -0.09403152 172.19000512 -0.09447362 173.15921584 -0.09492911 C199.61567764 -0.10723562 226.07213781 -0.11513044 252.5286026 -0.11424255 C254.02445274 -0.11419582 254.02445274 -0.11419582 255.55052208 -0.11414814 C260.60474697 -0.11398193 265.65897187 -0.11378384 270.71319676 -0.11357872 C271.71695669 -0.11353883 272.72071661 -0.11349894 273.7548935 -0.11345784 C275.78474085 -0.11337697 277.8145882 -0.11329337 279.84443555 -0.11320706 C311.41877195 -0.11198181 342.99306538 -0.12699066 374.56738949 -0.15435219 C410.05390237 -0.18509136 445.54038702 -0.20228356 481.02691406 -0.20042574 C484.81291195 -0.20027649 488.59890983 -0.20017907 492.38490772 -0.20011711 C493.31709233 -0.2000938 494.24927694 -0.20007049 495.20970956 -0.20004648 C510.19354652 -0.199985 525.1773461 -0.21274217 540.16117196 -0.22998164 C555.22806813 -0.24695779 570.29490976 -0.24889646 585.36181021 -0.235763 C594.30527097 -0.22838695 603.24856575 -0.23199144 612.19200882 -0.25164768 C618.17605431 -0.26368491 624.15998014 -0.26101523 630.14402024 -0.24670668 C633.54704038 -0.23897489 636.94948083 -0.23954174 640.35251863 -0.25362138 C673.34455066 -0.38103476 699.75296299 6.95921074 723.82691097 30.63226891 C742.02532349 49.00622039 751.49762902 73.31976965 751.39667988 99.11785793 C751.40018595 100.26649809 751.40369203 101.41513826 751.40730435 102.5985857 C751.41659359 106.43994538 751.41170132 110.28115265 751.40683651 114.12251854 C751.40947148 116.90755276 751.41509644 119.6925792 751.42056715 122.4776091 C751.43085082 128.52910047 751.43371379 134.58055985 751.43165493 140.6320591 C751.42860068 149.63131092 751.43693834 158.63052745 751.44740418 167.6297724 C751.46673394 184.6397933 751.47237203 201.64980213 751.4735183 218.65983272 C751.47443787 231.7982445 751.47855709 244.93665156 751.48491955 258.0750618 C751.48671468 261.8588592 751.48849431 265.6426566 751.4902693 269.42645401 C751.49093245 270.83751079 751.49093245 270.83751079 751.49160899 272.27707377 C751.5039155 298.73353557 751.51181032 325.18999574 751.51092243 351.64646053 C751.51089127 352.64369396 751.51086012 353.64092739 751.51082802 354.66838001 C751.5106618 359.72260491 751.51046372 364.7768298 751.5102586 369.83105469 C751.51019876 371.33669458 751.51019876 371.33669458 751.51013772 372.87275143 C751.51005685 374.90259879 751.50997325 376.93244614 751.50988694 378.96229349 C751.50866169 410.53662989 751.52367054 442.11092332 751.55103207 473.68524742 C751.58177124 509.17176031 751.59896344 544.65824496 751.59710562 580.14477199 C751.59695636 583.93076988 751.59685895 587.71676777 751.59679699 591.50276566 C751.59676203 592.90104257 751.59676203 592.90104257 751.59672636 594.32756749 C751.59666488 609.31140446 751.60942205 624.29520403 751.62666152 639.27902989 C751.64363767 654.34592606 751.64557634 669.41276769 751.63244288 684.47966815 C751.62506683 693.4231289 751.62867132 702.36642368 751.64832756 711.30986676 C751.66036479 717.29391224 751.6576951 723.27783808 751.64338656 729.26187817 C751.63565477 732.66489831 751.63622162 736.06733876 751.65030126 739.47037656 C751.77771464 772.46240859 744.43746913 798.87082092 720.76441097 822.94476891 C702.39045949 841.14318143 678.07691023 850.61548696 652.27882195 850.51453781 C650.5558617 850.51979692 650.5558617 850.51979692 648.79809418 850.52516228 C644.95673449 850.53445153 641.11552723 850.52955926 637.27416134 850.52469444 C634.48912712 850.52732941 631.70410068 850.53295437 628.91907078 850.53842509 C622.86757941 850.54870875 616.81612002 850.55157173 610.76462078 850.54951286 C601.76536895 850.54645861 592.76615243 850.55479627 583.76690747 850.56526211 C566.75688658 850.58459187 549.74687774 850.59022997 532.73684715 850.59137623 C519.59843538 850.5922958 506.46002832 850.59641502 493.32161808 850.60277748 C489.53782068 850.60457261 485.75402328 850.60635224 481.97022587 850.60812724 C481.02952135 850.60856933 480.08881683 850.60901143 479.11960611 850.60946692 C452.6631443 850.62177343 426.20668414 850.62966825 399.75021935 850.62878036 C398.75298592 850.62874921 397.75575249 850.62871805 396.72829987 850.62868595 C391.67407497 850.62851974 386.61985008 850.62832166 381.56562518 850.62811653 C380.56186526 850.62807664 379.55810534 850.62803675 378.52392844 850.62799565 C376.49408109 850.62791478 374.46423374 850.62783118 372.43438639 850.62774487 C340.86004999 850.62651962 309.28575656 850.64152847 277.71143246 850.66889 C242.22491957 850.69962917 206.73843492 850.71682137 171.25190789 850.71496356 C167.46591 850.7148143 163.67991211 850.71471688 159.89391422 850.71465492 C158.96172962 850.71463161 158.02954501 850.71460831 157.06911238 850.71458429 C142.08527542 850.71452281 127.10147584 850.72727998 112.11764999 850.74451945 C97.05075382 850.76149561 81.98391218 850.76343427 66.91701173 850.75030081 C57.97355098 850.74292476 49.0302562 850.74652925 40.08681312 850.76618549 C34.10276764 850.77822273 28.1188418 850.77555304 22.13480171 850.76124449 C18.73178157 850.7535127 15.32934112 850.75407955 11.92630332 850.7681592 C-21.06572872 850.89557258 -47.47414104 843.55532707 -71.54808903 819.88226891 C-89.74650155 801.50831742 -99.21880708 777.19476816 -99.11785793 751.39667988 C-99.12136401 750.24803972 -99.12487008 749.09939956 -99.1284824 747.91595212 C-99.13777165 744.07459243 -99.13287938 740.23338517 -99.12801456 736.39201927 C-99.13064953 733.60698506 -99.13627449 730.82195861 -99.14174521 728.03692871 C-99.15202888 721.98543734 -99.15489185 715.93397796 -99.15283298 709.88247871 C-99.14977874 700.88322689 -99.15811639 691.88401036 -99.16858224 682.88476541 C-99.18791199 665.87474451 -99.19355009 648.86473568 -99.19469635 631.85470509 C-99.19561592 618.71629331 -99.19973514 605.57788626 -99.2060976 592.43947601 C-99.20789273 588.65567862 -99.20967236 584.87188121 -99.21144736 581.0880838 C-99.21188945 580.14737928 -99.21233155 579.20667476 -99.21278704 578.23746404 C-99.22509355 551.78100224 -99.23298837 525.32454207 -99.23210049 498.86807728 C-99.23206933 497.87084385 -99.23203817 496.87361042 -99.23200607 495.8461578 C-99.23183986 490.79193291 -99.23164178 485.73770801 -99.23143665 480.68348312 C-99.23139676 479.67972319 -99.23135687 478.67596327 -99.23131577 477.64178638 C-99.2312349 475.61193903 -99.2311513 473.58209168 -99.23106499 471.55224433 C-99.22983975 439.97790793 -99.2448486 408.4036145 -99.27221012 376.82929039 C-99.30294929 341.34277751 -99.32014149 305.85629285 -99.31828368 270.36976582 C-99.31813442 266.58376793 -99.318037 262.79777005 -99.31797504 259.01177216 C-99.31795174 258.07958755 -99.31792843 257.14740294 -99.31790441 256.18697032 C-99.31784293 241.20313335 -99.3306001 226.21933378 -99.34783957 211.23550792 C-99.36481573 196.16861175 -99.3667544 181.10177012 -99.35362093 166.03486966 C-99.34624488 157.09140891 -99.34984937 148.14811413 -99.36950561 139.20467105 C-99.38154285 133.22062557 -99.37887316 127.23669974 -99.36456461 121.25265964 C-99.35683282 117.8496395 -99.35739967 114.44719905 -99.37147932 111.04416125 C-99.4988927 78.05212922 -92.15864719 51.64371689 -68.48558903 27.56976891 C-50.11163754 9.37135638 -25.79808828 -0.10094915 0 0 Z " fill="#1557A6" transform="translate(98.86058902740479,-0.25726890563964844)"/>
<path d="M0 0 C1.72296024 -0.00525911 1.72296024 -0.00525911 3.48072776 -0.01062447 C7.32208745 -0.01991372 11.16329471 -0.01502144 15.00466061 -0.01015663 C17.78969482 -0.0127916 20.57472127 -0.01841656 23.35975116 -0.02388728 C29.41124253 -0.03417094 35.46270192 -0.03703391 41.51420116 -0.03497505 C50.51345299 -0.0319208 59.51266952 -0.04025846 68.51191447 -0.0507243 C85.52193537 -0.07005406 102.5319442 -0.07569215 119.54197479 -0.07683842 C132.68038657 -0.07775799 145.81879362 -0.08187721 158.95720387 -0.08823967 C162.74100126 -0.0900348 166.52479867 -0.09181443 170.30859607 -0.09358943 C171.2493006 -0.09403152 172.19000512 -0.09447362 173.15921584 -0.09492911 C199.61567764 -0.10723562 226.07213781 -0.11513044 252.5286026 -0.11424255 C254.02445274 -0.11419582 254.02445274 -0.11419582 255.55052208 -0.11414814 C260.60474697 -0.11398193 265.65897187 -0.11378384 270.71319676 -0.11357872 C271.71695669 -0.11353883 272.72071661 -0.11349894 273.7548935 -0.11345784 C275.78474085 -0.11337697 277.8145882 -0.11329337 279.84443555 -0.11320706 C311.41877195 -0.11198181 342.99306538 -0.12699066 374.56738949 -0.15435219 C410.05390237 -0.18509136 445.54038702 -0.20228356 481.02691406 -0.20042574 C484.81291195 -0.20027649 488.59890983 -0.20017907 492.38490772 -0.20011711 C493.31709233 -0.2000938 494.24927694 -0.20007049 495.20970956 -0.20004648 C510.19354652 -0.199985 525.1773461 -0.21274217 540.16117196 -0.22998164 C555.22806813 -0.24695779 570.29490976 -0.24889646 585.36181021 -0.235763 C594.30527097 -0.22838695 603.24856575 -0.23199144 612.19200882 -0.25164768 C618.17605431 -0.26368491 624.15998014 -0.26101523 630.14402024 -0.24670668 C633.54704038 -0.23897489 636.94948083 -0.23954174 640.35251863 -0.25362138 C673.34455066 -0.38103476 699.75296299 6.95921074 723.82691097 30.63226891 C742.02532349 49.00622039 751.49762902 73.31976965 751.39667988 99.11785793 C751.40018595 100.26649809 751.40369203 101.41513826 751.40730435 102.5985857 C751.41659359 106.43994538 751.41170132 110.28115265 751.40683651 114.12251854 C751.40947148 116.90755276 751.41509644 119.6925792 751.42056715 122.4776091 C751.43085082 128.52910047 751.43371379 134.58055985 751.43165493 140.6320591 C751.42860068 149.63131092 751.43693834 158.63052745 751.44740418 167.6297724 C751.46673394 184.6397933 751.47237203 201.64980213 751.4735183 218.65983272 C751.47443787 231.7982445 751.47855709 244.93665156 751.48491955 258.0750618 C751.48671468 261.8588592 751.48849431 265.6426566 751.4902693 269.42645401 C751.49093245 270.83751079 751.49093245 270.83751079 751.49160899 272.27707377 C751.5039155 298.73353557 751.51181032 325.18999574 751.51092243 351.64646053 C751.51089127 352.64369396 751.51086012 353.64092739 751.51082802 354.66838001 C751.5106618 359.72260491 751.51046372 364.7768298 751.5102586 369.83105469 C751.51019876 371.33669458 751.51019876 371.33669458 751.51013772 372.87275143 C751.51005685 374.90259879 751.50997325 376.93244614 751.50988694 378.96229349 C751.50866169 410.53662989 751.52367054 442.11092332 751.55103207 473.68524742 C751.58177124 509.17176031 751.59896344 544.65824496 751.59710562 580.14477199 C751.59695636 583.93076988 751.59685895 587.71676777 751.59679699 591.50276566 C751.59676203 592.90104257 751.59676203 592.90104257 751.59672636 594.32756749 C751.59666488 609.31140446 751.60942205 624.29520403 751.62666152 639.27902989 C751.64363767 654.34592606 751.64557634 669.41276769 751.63244288 684.47966815 C751.62506683 693.4231289 751.62867132 702.36642368 751.64832756 711.30986676 C751.66036479 717.29391224 751.6576951 723.27783808 751.64338656 729.26187817 C751.63565477 732.66489831 751.63622162 736.06733876 751.65030126 739.47037656 C751.77771464 772.46240859 744.43746913 798.87082092 720.76441097 822.94476891 C708.1707675 835.41809666 692.45253973 844.18596272 675.13941097 848.25726891 C674.45524105 848.42480675 673.77107113 848.59234459 673.06616879 848.76495934 C663.8610136 850.74446935 654.7092156 850.51008712 645.34644222 850.45258141 C643.54612543 850.44884416 641.74580659 850.44600056 639.94548702 850.44400597 C635.24212534 850.43642548 630.53889018 850.41682595 625.83557796 850.39459801 C621.02215949 850.37401826 616.20872028 850.36497849 611.39527035 850.35492516 C601.97658646 850.33357396 592.55802911 850.29843835 583.13941097 850.25726891 C583.13941097 844.97726891 583.13941097 839.69726891 583.13941097 834.25726891 C584.41171566 834.23148766 585.68402035 834.20570641 586.99487972 834.17914391 C629.89496889 832.95189743 667.25604779 816.40917709 697.01441097 785.31976891 C726.17806498 752.36209721 734.30773569 712.15798864 734.27312374 669.46681786 C734.27499444 667.26975725 734.27729617 665.07269698 734.27998906 662.87563723 C734.28608136 656.86690715 734.28597651 650.85819104 734.28479469 644.84945858 C734.28459003 638.3577992 734.2901156 631.86614423 734.29485226 625.37448692 C734.30336116 612.66719222 734.30591946 599.95990148 734.30646463 587.25260422 C734.30692501 576.92033875 734.30898768 566.58807477 734.31216526 556.25580978 C734.31306287 553.27660694 734.31395268 550.29740409 734.31484014 547.31820124 C734.31506119 546.57746591 734.31528223 545.83673058 734.31550998 545.07354872 C734.32166001 524.25174914 734.32561096 503.42995007 734.3251667 482.60814953 C734.32515112 481.82388838 734.32513554 481.03962724 734.32511949 480.23160061 C734.32503639 476.2570627 734.32493735 472.2825248 734.32483479 468.30798689 C734.32481484 467.51869556 734.3247949 466.72940422 734.32477435 465.91619497 C734.32473391 464.32005735 734.32469211 462.72391973 734.32464895 461.12778211 C734.32403633 436.29976339 734.33154211 411.47175833 734.34522152 386.64374352 C734.36060085 358.71920442 734.36918664 330.79467431 734.3682583 302.87013072 C734.36818367 299.8893561 734.36813496 296.90858148 734.36810398 293.92780685 C734.36809233 293.19391969 734.36808067 292.46003253 734.36806866 291.70390636 C734.36803797 279.92371792 734.3744078 268.14354139 734.38303625 256.36335649 C734.3915363 244.5129362 734.3924843 232.66253325 734.38592692 220.81211159 C734.38266837 214.39967604 734.38258106 207.98728343 734.39128017 201.57485199 C734.39917534 195.69436293 734.39768307 189.81395067 734.38899604 183.93346342 C734.38746769 181.81646464 734.38925187 179.69946004 734.39485612 177.58246813 C734.50295735 133.81717186 723.86690709 94.72218403 693.13941097 62.25726891 C692.26929379 61.31109703 691.3991766 60.36492516 690.50269222 59.39008141 C665.06933247 32.34225621 627.43014754 17.41252342 590.68208551 15.97718918 C584.86945039 15.8367182 579.05774967 15.85158511 573.24384212 15.86958885 C571.01201557 15.86540533 568.78019115 15.85992228 566.5483706 15.85326904 C560.47578765 15.83892929 554.40334174 15.84302295 548.33075166 15.85043585 C542.43498512 15.85470379 536.53925201 15.84482949 530.64349373 15.83552823 C517.85417017 15.81594613 505.06488733 15.81349762 492.27555235 15.81872343 C481.08035813 15.82329514 469.88517994 15.82266339 458.68998623 15.81688309 C457.18351444 15.81612619 455.67704265 15.81537021 454.17057087 15.81461514 C451.89995615 15.81346985 449.62934143 15.81231996 447.35872672 15.8111559 C426.27149442 15.80046384 405.18426742 15.79571229 384.0970335 15.80362606 C383.3035229 15.80392323 382.51001229 15.80422041 381.69245591 15.80452659 C375.25017341 15.80697508 368.80789098 15.80958689 362.36560855 15.81221072 C337.24770348 15.82230952 312.1298653 15.81395944 287.01196957 15.79071617 C258.73609548 15.76459241 230.46026164 15.75180929 202.18437505 15.75890392 C199.16428296 15.75961989 196.14419088 15.76029429 193.12409878 15.76094437 C192.38057645 15.76111418 191.63705412 15.76128398 190.87100082 15.76145894 C179.69124725 15.76375327 168.51153129 15.75582652 157.33178616 15.74265289 C144.60426472 15.72768141 131.87683089 15.72697858 119.14931121 15.7447238 C112.66516894 15.7533943 106.18115926 15.7554616 99.69702244 15.74007225 C93.74424994 15.7261198 87.79178546 15.73112252 81.8390303 15.75031149 C79.70261986 15.75403969 77.5661841 15.75124318 75.42979643 15.74069984 C31.87858574 15.54130611 -6.90670824 28.05287595 -38.86058903 58.25726891 C-39.67140934 59.00363609 -40.48222965 59.75000328 -41.31762028 60.51898766 C-68.62727372 86.53842125 -83.161787 125.50862932 -84.31721049 162.77111043 C-84.39414382 167.66967701 -84.38602897 172.56563165 -84.36179447 177.46459007 C-84.36569951 179.69360784 -84.37134948 181.9226231 -84.37856537 184.15163261 C-84.39316491 190.20240462 -84.38323217 196.25291226 -84.36882865 202.30367529 C-84.35878756 208.18238899 -84.36772474 214.0610564 -84.37595259 219.93976847 C-84.39304908 232.68685692 -84.38766512 245.43385874 -84.37259541 258.18094529 C-84.35949552 269.33487616 -84.3543569 280.48877711 -84.35691357 291.64271545 C-84.35707398 292.385259 -84.3572344 293.12780254 -84.35739967 293.8928474 C-84.35806336 296.9077444 -84.35876579 299.92264139 -84.35952501 302.93753837 C-84.36653365 331.16257347 -84.35110885 359.38755596 -84.32490156 387.61257768 C-84.30178295 412.64365337 -84.29640264 437.67467127 -84.30663395 462.70575523 C-84.30923634 469.11896417 -84.31182147 475.53217311 -84.31423187 481.94538212 C-84.31452932 482.7351298 -84.31482677 483.52487749 -84.31513323 484.33855692 C-84.32276103 505.30861878 -84.31632454 526.27867597 -84.30553585 547.24873573 C-84.30438815 549.50710119 -84.30324497 551.76546665 -84.30210903 554.02383211 C-84.30135379 555.52171152 -84.30058814 557.01959092 -84.29981202 558.51747031 C-84.29417264 569.66161905 -84.29547072 580.8057528 -84.30004025 591.94990158 C-84.30516561 604.62914901 -84.29921742 617.30834061 -84.27914595 629.98757418 C-84.26931485 636.44894635 -84.26412347 642.91022801 -84.27203846 649.37160492 C-84.27915016 655.29871933 -84.27216363 661.22565197 -84.25443483 667.1527426 C-84.25042571 669.28427901 -84.25132983 671.41583228 -84.2579537 673.54736217 C-84.38587147 718.60517034 -71.54036682 758.87383926 -40.36058903 792.13226891 C-10.75077936 820.80021584 26.69593213 833.11077733 67.13941097 834.25726891 C67.13941097 839.53726891 67.13941097 844.81726891 67.13941097 850.25726891 C57.14997651 850.348292 47.1608256 850.42139636 37.17106724 850.46451759 C32.53047333 850.48523242 27.89018224 850.51324836 23.24976254 850.55902672 C18.75633886 850.60306835 14.26320305 850.62652641 9.76957989 850.63677788 C8.0706839 850.64406626 6.3718004 850.65829194 4.6730299 850.68018913 C-24.12212078 851.03598212 -48.91984862 841.68312561 -69.832757 821.56903648 C-86.88856269 804.79725147 -98.54832659 781.85392034 -99.11358869 757.57726568 C-99.12508507 755.517102 -99.12591952 753.45685986 -99.11785793 751.39667988 C-99.12136401 750.24803972 -99.12487008 749.09939956 -99.1284824 747.91595212 C-99.13777165 744.07459243 -99.13287938 740.23338517 -99.12801456 736.39201927 C-99.13064953 733.60698506 -99.13627449 730.82195861 -99.14174521 728.03692871 C-99.15202888 721.98543734 -99.15489185 715.93397796 -99.15283298 709.88247871 C-99.14977874 700.88322689 -99.15811639 691.88401036 -99.16858224 682.88476541 C-99.18791199 665.87474451 -99.19355009 648.86473568 -99.19469635 631.85470509 C-99.19561592 618.71629331 -99.19973514 605.57788626 -99.2060976 592.43947601 C-99.20789273 588.65567862 -99.20967236 584.87188121 -99.21144736 581.0880838 C-99.21188945 580.14737928 -99.21233155 579.20667476 -99.21278704 578.23746404 C-99.22509355 551.78100224 -99.23298837 525.32454207 -99.23210049 498.86807728 C-99.23206933 497.87084385 -99.23203817 496.87361042 -99.23200607 495.8461578 C-99.23183986 490.79193291 -99.23164178 485.73770801 -99.23143665 480.68348312 C-99.23139676 479.67972319 -99.23135687 478.67596327 -99.23131577 477.64178638 C-99.2312349 475.61193903 -99.2311513 473.58209168 -99.23106499 471.55224433 C-99.22983975 439.97790793 -99.2448486 408.4036145 -99.27221012 376.82929039 C-99.30294929 341.34277751 -99.32014149 305.85629285 -99.31828368 270.36976582 C-99.31813442 266.58376793 -99.318037 262.79777005 -99.31797504 259.01177216 C-99.31795174 258.07958755 -99.31792843 257.14740294 -99.31790441 256.18697032 C-99.31784293 241.20313335 -99.3306001 226.21933378 -99.34783957 211.23550792 C-99.36481573 196.16861175 -99.3667544 181.10177012 -99.35362093 166.03486966 C-99.34624488 157.09140891 -99.34984937 148.14811413 -99.36950561 139.20467105 C-99.38154285 133.22062557 -99.37887316 127.23669974 -99.36456461 121.25265964 C-99.35683282 117.8496395 -99.35739967 114.44719905 -99.37147932 111.04416125 C-99.4988927 78.05212922 -92.15864719 51.64371689 -68.48558903 27.56976891 C-50.11163754 9.37135638 -25.79808828 -0.10094915 0 0 Z " fill="#2D7FE6" transform="translate(98.86058902740479,-0.25726890563964844)"/>
<path d="M0 0 C4.17258919 1.63687603 6.96425073 4.69330968 10.05078125 7.8203125 C10.62781296 8.39780243 11.20484467 8.97529236 11.79936218 9.57028198 C13.01957662 10.79351367 14.23736351 12.01917105 15.45288086 13.24707031 C17.2904276 15.10271027 19.13568538 16.95038537 20.98242188 18.796875 C26.24826966 24.07903236 31.42763425 29.36626311 36.2668457 35.04638672 C40.11959128 39.38920545 44.31478543 43.41587095 48.4375 47.5 C49.35982422 48.4178125 50.28214844 49.335625 51.23242188 50.28125 C53.48599899 52.52315055 55.74189075 54.762666 58 57 C51.99369296 64.33872871 45.19153387 70.87379424 38.45239258 77.52709961 C36.87365437 79.08751683 35.29811436 80.6511159 33.72265625 82.21484375 C32.79203369 83.13386475 31.86141113 84.05288574 30.90258789 84.99975586 C28.75696827 87.16853066 26.75027839 89.42274044 24.76292419 91.73707581 C21.28804298 95.7219381 17.64366591 99.48534514 13.890625 103.20703125 C13.21809692 103.87809906 12.54556885 104.54916687 11.85266113 105.24057007 C10.40627216 106.6831823 8.95873019 108.12463929 7.51013184 109.56503296 C5.21169248 111.85059287 2.91649291 114.13936328 0.62207031 116.42895508 C-5.074386 122.11211219 -10.77629259 127.78979087 -16.47802734 133.46765137 C-21.30621756 138.2760461 -26.13231074 143.08652743 -30.95568848 147.89974976 C-33.20635799 150.1439828 -35.46004031 152.38515923 -37.71386719 154.6262207 C-39.1062692 156.01498694 -40.49852918 157.4038956 -41.890625 158.79296875 C-42.81820618 159.71280045 -42.81820618 159.71280045 -43.76452637 160.6512146 C-46.78457691 163.67090337 -49.68435729 166.74508494 -52.47705078 169.97705078 C-55.97513601 174.02203904 -59.68144701 177.8090012 -63.4765625 181.57421875 C-64.18810486 182.28430084 -64.89964722 182.99438293 -65.63275146 183.72598267 C-67.16426522 185.2537173 -68.69693215 186.78029662 -70.23065186 188.30581665 C-72.66350535 190.72580168 -75.09312949 193.14898843 -77.52197266 195.57299805 C-83.55233492 201.59005432 -89.58814437 207.60163687 -95.6237793 213.61340332 C-100.73380573 218.70364193 -105.84174094 223.79596193 -110.94696045 228.89102173 C-113.3305867 231.26820672 -115.7172248 233.64233867 -118.10400391 236.01635742 C-119.57729769 237.48601575 -121.05044962 238.95581632 -122.5234375 240.42578125 C-123.50712311 241.40171738 -123.50712311 241.40171738 -124.51068115 242.39736938 C-128.2586736 246.14493715 -131.78798418 250.01624426 -135.25274277 254.02591896 C-138.14561856 257.2943394 -141.23063828 260.3615387 -144.32470703 263.43823242 C-145.01995483 264.13362625 -145.71520264 264.82902008 -146.43151855 265.54548645 C-148.70458466 267.81786227 -150.98116153 270.08668504 -153.2578125 272.35546875 C-154.85030691 273.94609484 -156.44257828 275.53694426 -158.03463745 277.12800598 C-162.20943677 281.29900445 -166.38722887 285.46699248 -170.56567383 289.63433838 C-174.81512427 293.87355333 -179.06174388 298.11560195 -183.30859375 302.35742188 C-190.16597831 309.20603622 -197.02508276 316.05292226 -203.88644409 322.89755249 C-207.25982658 326.26284459 -210.63147179 329.62984868 -214 333 C-218.15902947 331.36420498 -220.94162113 328.33115712 -224.02374268 325.21676636 C-224.62335902 324.61885886 -225.22297536 324.02095137 -225.8407619 323.40492547 C-227.85077458 321.39820967 -229.85355089 319.38442416 -231.85644531 317.37060547 C-233.29501112 315.93147559 -234.73401732 314.49278583 -236.1734314 313.05450439 C-240.0825199 309.14599056 -243.98540399 305.23133348 -247.88722324 301.31556463 C-251.96492581 297.22537391 -256.04827903 293.1408325 -260.13104248 289.05569458 C-267.86268641 281.31783026 -275.58921722 273.57488103 -283.31393504 265.83010304 C-292.10798479 257.01371172 -300.90770275 248.20298728 -309.7079072 239.39274001 C-327.81159649 221.26813604 -345.90813715 203.13640851 -364 185 C-363.05557661 183.88956563 -362.1099105 182.78018814 -361.16373253 181.67124844 C-360.63725038 181.05334893 -360.11076823 180.43544942 -359.56833208 179.79882568 C-357.38921956 177.29945478 -355.07630554 174.95682253 -352.72900391 172.61547852 C-351.99617187 171.88242744 -351.99617187 171.88242744 -351.24853516 171.13456726 C-349.66024061 169.54695997 -348.06845249 167.96290763 -346.4765625 166.37890625 C-345.36390615 165.26811831 -344.25147284 164.1571069 -343.13925171 163.04588318 C-340.2316873 160.14211066 -337.32113095 157.24135564 -334.40991211 154.34124756 C-331.43159571 151.37321737 -328.45615894 148.40230338 -325.48046875 145.43164062 C-319.65643877 139.61828917 -313.8292405 133.80812666 -308 128 C-304.79177828 129.41392648 -302.64749941 131.10493631 -300.17816162 133.58132935 C-299.43221741 134.32452423 -298.68627319 135.06771912 -297.91772461 135.83343506 C-297.10924072 136.6491095 -296.30075684 137.46478394 -295.46777344 138.30517578 C-294.60887512 139.16378204 -293.74997681 140.02238831 -292.86505127 140.90701294 C-290.51460664 143.25861144 -288.16868541 145.61455732 -285.82466412 147.97254801 C-283.372552 150.43716991 -280.91476793 152.89612225 -278.45758057 155.35568237 C-273.8071181 160.01235887 -269.16177703 164.67410974 -264.51825547 169.33770645 C-259.23080081 174.64752248 -253.93766016 179.9516548 -248.64403486 185.25531793 C-237.75635189 196.16390116 -226.87582949 207.07959806 -216 218 C-211.89900228 216.11364056 -209.08815989 213.35978818 -205.94921875 210.1796875 C-205.37218704 209.60219757 -204.79515533 209.02470764 -204.20063782 208.42971802 C-202.98042338 207.20648633 -201.76263649 205.98082895 -200.54711914 204.75292969 C-198.7095724 202.89728973 -196.86431462 201.04961463 -195.01757812 199.203125 C-193.82765548 198.0082799 -192.63818818 196.81298113 -191.44921875 195.6171875 C-190.90730392 195.07415985 -190.3653891 194.5311322 -189.80705261 193.97164917 C-187.05436881 191.18564906 -184.41865157 188.34818647 -181.87573242 185.36914062 C-177.2756002 180.06326428 -172.27038326 175.1588549 -167.28987503 170.21471024 C-165.50554438 168.44328684 -163.72448282 166.66863215 -161.94418335 164.89315796 C-158.17394682 161.13426348 -154.39975374 157.37935745 -150.625 153.625 C-146.22756125 149.251178 -141.83176752 144.87572811 -137.44013596 140.49607468 C-135.68442046 138.74684526 -133.9257257 137.00064908 -132.16690063 135.25454712 C-131.09761143 134.18888807 -130.02846104 133.12308971 -128.95947266 132.05712891 C-128.0235025 131.12639557 -127.08753235 130.19566223 -126.12319946 129.23672485 C-123.97329161 127.1894389 -123.97329161 127.1894389 -123 125 C-122.34 125 -121.68 125 -121 125 C-120.77084396 124.44519958 -120.54168793 123.89039917 -120.30558777 123.31878662 C-118.63157584 120.34566099 -116.53458208 118.30327541 -114.1105957 115.89941406 C-113.61436203 115.40449463 -113.11812836 114.9095752 -112.6068573 114.3996582 C-110.96771611 112.76699858 -109.32171273 111.14143637 -107.67578125 109.515625 C-106.52904624 108.37516674 -105.38282909 107.23418757 -104.23710632 106.0927124 C-101.21744326 103.08634927 -98.1922745 100.08559325 -95.16546631 97.08642578 C-90.33802937 92.30208102 -85.51715569 87.51114931 -80.69972801 82.71672821 C-79.02557134 81.05268971 -77.3479835 79.39217108 -75.66999817 77.73199463 C-69.4337325 71.55915347 -69.4337325 71.55915347 -63.55029297 65.05249023 C-59.00191886 59.73070233 -53.97539346 54.8650283 -49.01117897 49.93601418 C-47.17141262 48.10916265 -45.3349211 46.27907301 -43.49919128 44.44816589 C-39.60644982 40.56677163 -35.70976712 36.68934938 -31.8125 32.8125 C-27.28220269 28.30586686 -22.75357007 23.79758626 -18.2291317 19.28507042 C-16.4253756 17.48776529 -14.61862099 15.6935127 -12.8117218 13.89936829 C-11.70221374 12.79349392 -10.59284649 11.68747826 -9.48364258 10.58129883 C-8.98537964 10.08820221 -8.4871167 9.59510559 -7.97375488 9.08706665 C-5.09478619 6.20853294 -2.48431136 3.22468011 0 0 Z " fill="#FDFEFE" transform="translate(577,259)"/>
<path d="M0 0 C15.43728572 12.54279465 27.03222166 30.61354794 32 50 C32 50.99 32 51.98 32 53 C32.66 53 33.32 53 34 53 C35.23324525 58.75619666 35.14114307 64.41771492 35.13142776 70.273283 C35.1334804 71.41914991 35.13553303 72.56501681 35.13764787 73.74560696 C35.14233385 76.93137935 35.14254365 80.11711604 35.14087028 83.30289029 C35.14013871 86.76686173 35.14516322 90.23082561 35.1494453 93.69479382 C35.15702366 100.56735337 35.15921827 107.43990516 35.15977435 114.31246845 C35.16068813 122.54331969 35.16735602 130.77416374 35.17412117 139.00501188 C35.19018068 158.8968869 35.19608402 178.78876116 35.20086992 198.68064149 C35.20320552 208.08849686 35.20680809 217.49635161 35.2105653 226.90420649 C35.22339962 259.10168908 35.23411981 291.29917133 35.2375679 323.49665642 C35.23778953 325.51774933 35.23801132 327.53884225 35.23823325 329.55993516 C35.23845389 331.58592765 35.23867438 333.61192014 35.2388947 335.63791263 C35.23933726 339.70245608 35.23978437 343.76699952 35.24023438 347.83154297 C35.24034377 348.83931324 35.24045316 349.84708351 35.24056586 350.88539227 C35.24419806 383.57660913 35.26012487 416.26780384 35.28342474 448.95901222 C35.30800826 483.51435482 35.32174001 518.06968475 35.32293582 552.62503636 C35.32310728 556.41654977 35.32332271 560.20806317 35.32357025 563.99957657 C35.3236539 565.39996358 35.3236539 565.39996358 35.32373925 566.82864123 C35.32489086 581.86586271 35.33592198 596.90306149 35.35045731 611.9402753 C35.36480746 627.04680729 35.36806765 642.1533101 35.36001733 657.25984703 C35.35555438 666.23868589 35.35944825 675.21743071 35.37525584 684.19625725 C35.38498527 690.19129593 35.38384713 696.18626853 35.37381961 702.18130657 C35.36841289 705.59878481 35.36776444 709.01608211 35.38032833 712.43354557 C35.39134314 716.11420713 35.38398738 719.794387 35.3719368 723.47503471 C35.37953199 724.53684104 35.38712718 725.59864736 35.39495254 726.69262964 C35.35117546 732.85705324 34.50968092 737.36075899 32 743 C31.42606334 744.66276298 30.8609133 746.32864519 30.3125 748 C30.06113281 748.763125 29.80976562 749.52625 29.55078125 750.3125 C29.27814453 751.1478125 29.27814453 751.1478125 29 752 C27.80873219 748.42619658 28.2650555 746.49116698 28.9375 742.8125 C29.13214844 741.72582031 29.32679688 740.63914062 29.52734375 739.51953125 C29.76130859 738.27236328 29.76130859 738.27236328 30 737 C30.66 737 31.32 737 32 737 C31.979375 735.7625 31.95875 734.525 31.9375 733.25 C31.90133822 731.08029306 31.92988319 729.25899807 32.49812536 727.16002035 C33.04627144 724.80085217 33.12612458 722.72029049 33.1276505 720.29904944 C33.13066647 719.35020267 33.13368244 718.40135591 33.1367898 717.42375621 C33.13502033 716.38232098 33.13325086 715.34088576 33.13142776 714.26789188 C33.13450672 712.60038612 33.13450672 712.60038612 33.13764787 710.89919338 C33.14334162 707.14152997 33.14185769 703.38390294 33.14044189 699.62623596 C33.14247361 696.91792881 33.14599799 694.20962406 33.1494453 691.5013184 C33.15703229 684.81755959 33.15921871 678.13380877 33.15977435 671.45004611 C33.16068732 663.44653757 33.16735292 655.44303644 33.17412117 647.43953108 C33.19019151 628.09235708 33.19608587 608.74518385 33.20086992 589.39800437 C33.20320508 580.24608957 33.20680767 571.09417539 33.2105653 561.94226108 C33.22340243 530.61730577 33.23412092 499.29235081 33.2375679 467.96739292 C33.23778953 466.00044604 33.23801132 464.03349916 33.23823325 462.06655228 C33.23845389 460.09483268 33.23867438 458.12311307 33.2388947 456.15139347 C33.23933726 452.19573692 33.23978437 448.24008038 33.24023438 444.28442383 C33.24034377 443.30364875 33.24045316 442.32287367 33.24056586 441.31237813 C33.24419592 409.51577635 33.2601132 377.71919737 33.28342474 345.92260431 C33.30802279 312.30978615 33.32174075 278.69698102 33.32293582 245.08415359 C33.32310727 241.39390591 33.3233227 237.70365824 33.32357025 234.01341057 C33.32362602 233.10476005 33.32368179 232.19610954 33.32373925 231.25992416 C33.3248898 216.63828549 33.33591229 202.01667023 33.35045731 187.39503947 C33.36482644 172.69593218 33.36805696 157.99685488 33.36001733 143.29774249 C33.35556284 134.56658229 33.35941444 125.83551892 33.37525584 117.10437145 C33.38501493 111.26797577 33.38381871 105.43164782 33.37381961 99.59525274 C33.36843415 96.27240613 33.36936286 92.94989625 33.38032833 89.62704105 C33.67424129 72.82330868 33.67424129 72.82330868 30.64333034 56.39980644 C29.95655378 53.83793315 29.88808888 51.64010526 30 49 C29.34 49 28.68 49 28 49 C27.7525 47.88625 27.505 46.7725 27.25 45.625 C25.15482971 37.45811173 21.79014976 30.34918256 17.5 23.125 C17.12029053 22.48232178 16.74058105 21.83964355 16.34936523 21.17749023 C14.21095668 17.66488521 11.92929787 14.86272292 9 12 C9 11.34 9 10.68 9 10 C8.01 9.67 7.02 9.34 6 9 C4.39453125 7.44140625 4.39453125 7.44140625 2.8125 5.5625 C2.01779297 4.63630859 2.01779297 4.63630859 1.20703125 3.69140625 C0 2 0 2 0 0 Z " fill="#3678C6" transform="translate(815,28)"/>
<path d="M0 0 C0.33 0 0.66 0 1 0 C0.17559594 25.55652572 -15.52621941 46.73269197 -33.44970703 63.58886719 C-43.23270629 72.49370746 -57.14283946 79.78570986 -70 83 C-72.234375 82.55859375 -72.234375 82.55859375 -74 82 C-73.07960938 81.6596875 -72.15921875 81.319375 -71.2109375 80.96875 C-43.82460692 70.58900611 -21.76489784 52.25061886 -8.75 25.75 C-5.10659501 17.43262689 -2.58785254 8.69041261 0 0 Z " fill="#ECF9FE" transform="translate(848,764)"/>
<path d="M0 0 C22.03253771 1.53715379 40.82599668 18.42821435 55 34 C64.28922649 45.03311473 74.64591111 63.27860924 74 78 C72.19893018 75.29839527 71.1999244 72.90239149 70.14892578 69.85986328 C65.43422326 56.29174545 58.7228085 43.65994667 49 33 C48.5467334 32.49903809 48.0934668 31.99807617 47.62646484 31.48193359 C34.45646734 17.10328342 18.65758208 6.90681442 0 1 C0 0.67 0 0.34 0 0 Z " fill="#E5F6FD" transform="translate(774,3)"/>
<path d="M0 0 C0.556875 0.598125 1.11375 1.19625 1.6875 1.8125 C3.86970771 4.0566309 3.86970771 4.0566309 6.40234375 5.33984375 C9.28093472 7.17954475 10.83508741 9.02447363 12.875 11.75 C18.3108781 18.74627087 23.23672442 23.75216997 31 28 C31.62261719 28.63421875 32.24523438 29.2684375 32.88671875 29.921875 C39.06965089 36.00194875 47.73731248 38.95673237 56 41 C56 41.66 56 42.32 56 43 C56.68964844 43.12117187 57.37929687 43.24234375 58.08984375 43.3671875 C62.77586842 44.20282976 67.45999257 45.05347675 72.125 46 C72.84945312 46.144375 73.57390625 46.28875 74.3203125 46.4375 C76 47 76 47 77 49 C49.33365865 47.69805452 26.92050371 33.22406117 8.44628906 13.61181641 C0 4.19885213 0 4.19885213 0 0 Z " fill="#91BBE3" transform="translate(14,801)"/>
<path d="M0 0 C3.22675015 1.41965767 5.37698922 3.12946659 7.85980225 5.61929321 C8.61416061 6.37090225 9.36851898 7.12251129 10.14573669 7.89689636 C10.96357132 8.72192154 11.78140594 9.54694672 12.62402344 10.39697266 C13.49267532 11.26533249 14.36132721 12.13369232 15.25630188 13.02836609 C17.63360473 15.40682287 20.00638497 17.78962826 22.37726498 20.1744771 C24.85740465 22.66712595 27.34321567 25.1541058 29.82843018 27.64169312 C34.53201638 32.35149353 39.23048141 37.06636861 43.92712712 41.78308904 C49.27504045 47.15336318 54.62863925 52.51795407 59.98272276 57.88207555 C70.9948195 68.91507296 81.99975596 79.95518427 93 91 C90 91 90 91 87.55151367 88.8762207 C86.58275601 87.90020262 85.6220902 86.91611198 84.66796875 85.92578125 C83.89662346 85.14451118 83.89662346 85.14451118 83.10969543 84.34745789 C81.46173757 82.67606498 79.82421412 80.99489881 78.1875 79.3125 C76.55989021 77.64963861 74.93011588 75.98898768 73.29743958 74.33110046 C72.28230186 73.29921727 71.27028091 72.26425483 70.26200867 71.22566223 C67.82976273 68.74295444 65.35092712 66.43650915 62.6418457 64.26635742 C61.77003662 63.51845947 60.89822754 62.77056152 60 62 C60 61.34 60 60.68 60 60 C59.34 60 58.68 60 58 60 C58 59.34 58 58.68 58 58 C56.68 57.34 55.36 56.68 54 56 C54 55.34 54 54.68 54 54 C53.34 54 52.68 54 52 54 C50.31267723 52.01739574 48.64633943 50.0167658 47 48 C46.01 47.505 46.01 47.505 45 47 C45 46.34 45 45.68 45 45 C44.34 45 43.68 45 43 45 C43 44.34 43 43.68 43 43 C42.443125 42.773125 41.88625 42.54625 41.3125 42.3125 C38.35812928 40.63569499 36.36897657 38.42675648 34 36 C33.113125 35.34 32.22625 34.68 31.3125 34 C28.77407018 31.80460123 27.96931321 30.17229779 27 27 C26.01 27 25.02 27 24 27 C22.6328125 25.70703125 22.6328125 25.70703125 21.125 23.8125 C17.72020741 19.73695598 14.07956728 15.98601713 10.3125 12.25 C9.75385254 11.69546143 9.19520508 11.14092285 8.61962891 10.56958008 C7.81211182 9.76943481 7.81211182 9.76943481 6.98828125 8.953125 C6.47604004 8.44458984 5.96379883 7.93605469 5.43603516 7.41210938 C4.17392261 6.17102489 2.89124175 4.95093021 1.60546875 3.734375 C0 2 0 2 0 0 Z " fill="#285991" transform="translate(260,492)"/>
<path d="M0 0 C0.66877747 1.79376221 0.66877747 1.79376221 1 4 C-0.04316711 5.65789795 -0.04316711 5.65789795 -1.70043945 7.29980469 C-2.62183464 8.23031647 -2.62183464 8.23031647 -3.56184387 9.17962646 C-4.23881821 9.83706848 -4.91579254 10.4945105 -5.61328125 11.171875 C-6.29803024 11.8542926 -6.98277924 12.53671021 -7.6882782 13.23980713 C-9.13945725 14.68123398 -10.59666056 16.11661704 -12.05932617 17.54638672 C-14.30515641 19.74281794 -16.5317735 21.95735588 -18.75585938 24.17578125 C-20.16557721 25.57141382 -21.57634963 26.96598211 -22.98828125 28.359375 C-23.65918289 29.02491394 -24.33008453 29.69045288 -25.02131653 30.37615967 C-25.64503647 30.98389221 -26.26875641 31.59162476 -26.91137695 32.21777344 C-27.4606636 32.75642029 -28.00995026 33.29506714 -28.57588196 33.85003662 C-30 35 -30 35 -32 35 C-32.25136719 35.57878906 -32.50273437 36.15757812 -32.76171875 36.75390625 C-34.15592914 39.28283677 -35.73790358 40.9343046 -37.8125 42.9375 C-38.52535156 43.62972656 -39.23820312 44.32195313 -39.97265625 45.03515625 C-40.97619141 46.00775391 -40.97619141 46.00775391 -42 47 C-42.9075 47.94875 -43.815 48.8975 -44.75 49.875 C-46.815758 51.82599366 -48.50554933 52.75277466 -51 54 C-51.33 54.99 -51.66 55.98 -52 57 C-53.32 56.67 -54.64 56.34 -56 56 C-37.33333333 37.33333333 -18.66666667 18.66666667 0 0 Z " fill="#255A98" transform="translate(420,534)"/>
<path d="M0 0 C15.43728572 12.54279465 27.03222166 30.61354794 32 50 C32 50.99 32 51.98 32 53 C32.66 53 33.32 53 34 53 C35.03590199 58.05002222 35.10251672 62.87416389 35 68 C31.96052688 65.51845756 31.42454194 63.44372324 30.8125 59.625 C30.65394531 58.68914062 30.49539063 57.75328125 30.33203125 56.7890625 C30.01898677 54.15948884 29.93748736 51.64476541 30 49 C29.34 49 28.68 49 28 49 C27.7525 47.88625 27.505 46.7725 27.25 45.625 C25.15482971 37.45811173 21.79014976 30.34918256 17.5 23.125 C17.12029053 22.48232178 16.74058105 21.83964355 16.34936523 21.17749023 C14.21095668 17.66488521 11.92929787 14.86272292 9 12 C9 11.34 9 10.68 9 10 C8.01 9.67 7.02 9.34 6 9 C4.39453125 7.44140625 4.39453125 7.44140625 2.8125 5.5625 C2.01779297 4.63630859 2.01779297 4.63630859 1.20703125 3.69140625 C0 2 0 2 0 0 Z " fill="#4C86CB" transform="translate(815,28)"/>
<path d="M0 0 C0.99 0.33 1.98 0.66 3 1 C-1.30627256 6.14829744 -5.82311931 10.95752072 -10.5859375 15.68359375 C-11.28772125 16.38396255 -11.989505 17.08433136 -12.71255493 17.80592346 C-14.93101136 20.01883027 -17.15293815 22.22821416 -19.375 24.4375 C-20.88955466 25.94703314 -22.40387985 27.45679657 -23.91796875 28.96679688 C-27.60933099 32.64719702 -31.30354069 36.32471957 -35 40 C-35.99 39.67 -36.98 39.34 -38 39 C-37.37439178 38.3777227 -37.37439178 38.3777227 -36.73614502 37.74287415 C-32.38550152 33.4143991 -28.03841766 29.0823725 -23.69335938 24.74829102 C-22.0725206 23.13247282 -20.45078435 21.51755436 -18.828125 19.90356445 C-16.49240903 17.58001367 -14.15996743 15.25321859 -11.828125 12.92578125 C-11.10506165 12.20787918 -10.38199829 11.48997711 -9.63702393 10.75032043 C-6.19839111 7.31206934 -2.93376293 3.89287773 0 0 Z " fill="#E6F5FA" transform="translate(577,259)"/>
<path d="M0 0 C-1.02738281 0.4846875 -2.05476563 0.969375 -3.11328125 1.46875 C-24.65766228 11.81328638 -42.40140862 26.90358252 -54 48 C-54.33 48.99 -54.66 49.98 -55 51 C-55.66 51 -56.32 51 -57 51 C-53.40516816 39.20069549 -45.37739558 30.66878325 -37 22 C-36.29617187 21.24460937 -35.59234375 20.48921875 -34.8671875 19.7109375 C-27.77143985 12.27045717 -19.65713497 7.16161272 -10.5625 2.5 C-9.86382812 2.13712891 -9.16515625 1.77425781 -8.4453125 1.40039062 C-3.36294158 -1.12098053 -3.36294158 -1.12098053 0 0 Z " fill="#DAF2FC" transform="translate(66,7)"/>
<path d="M0 0 C0 6.44785482 -7.54936842 11.5901738 -11.89770508 15.96142578 C-14.08876471 18.15093696 -16.28874562 20.33125513 -18.49194336 22.50854492 C-21.5938977 25.57635115 -24.67341016 28.65821993 -27.6875 31.8125 C-30 34 -30 34 -32 34 C-32.66 35.32 -33.32 36.64 -34 38 C-34.66 38 -35.32 38 -36 38 C-36 37.34 -36 36.68 -36 36 C-35.34 36 -34.68 36 -34 36 C-33.60290329 35.11492767 -33.60290329 35.11492767 -33.19778442 34.2119751 C-31.95890455 31.92410812 -30.67673262 30.43518354 -28.83544922 28.60839844 C-28.19493622 27.9680365 -27.55442322 27.32767456 -26.89450073 26.66790771 C-26.20486237 25.98859192 -25.515224 25.30927612 -24.8046875 24.609375 C-24.09724396 23.90476135 -23.38980042 23.20014771 -22.66091919 22.47418213 C-20.40360138 20.2280461 -18.13942367 17.98896991 -15.875 15.75 C-14.34199047 14.22702283 -12.80943285 12.70359061 -11.27734375 11.1796875 C-7.52345427 7.44783185 -3.76391086 3.72174649 0 0 Z " fill="#E5F4FB" transform="translate(490,348)"/>
<path d="M0 0 C4.29067546 1.65236651 7.1429553 4.8905207 10.296875 8.1015625 C10.89050842 8.69802582 11.48414185 9.29448914 12.09576416 9.9090271 C13.98526627 11.8096981 15.86768392 13.71721474 17.75 15.625 C19.03209065 16.91712468 20.31463761 18.20879676 21.59765625 19.5 C24.73708432 22.66144479 27.87017801 25.8290461 31 29 C30.67 29.66 30.34 30.32 30 31 C29.34 31 28.68 31 28 31 C26.51953125 29.49609375 26.51953125 29.49609375 24.8125 27.4375 C21.39217071 23.41274662 17.76848916 19.69566812 14 16 C13.175 15.154375 12.35 14.30875 11.5 13.4375 C9.49450929 11.48214655 7.4822192 9.7581436 5.3125 8 C2.46606763 5.61147197 0.97404672 3.67973205 0 0 Z " fill="#336499" transform="translate(229,461)"/>
<path d="M0 0 C4.29067546 1.65236651 7.1429553 4.8905207 10.296875 8.1015625 C10.89050842 8.69802582 11.48414185 9.29448914 12.09576416 9.9090271 C13.98526627 11.8096981 15.86768392 13.71721474 17.75 15.625 C19.03209065 16.91712468 20.31463761 18.20879676 21.59765625 19.5 C24.73708432 22.66144479 27.87017801 25.8290461 31 29 C30.34 29.66 29.68 30.32 29 31 C28.34 29.68 27.68 28.36 27 27 C26.01 27 25.02 27 24 27 C22.6328125 25.70703125 22.6328125 25.70703125 21.125 23.8125 C17.72020741 19.73695598 14.07956728 15.98601713 10.3125 12.25 C9.75385254 11.69546143 9.19520508 11.14092285 8.61962891 10.56958008 C7.81211182 9.76943481 7.81211182 9.76943481 6.98828125 8.953125 C6.47604004 8.44458984 5.96379883 7.93605469 5.43603516 7.41210938 C4.17392261 6.17102489 2.89124175 4.95093021 1.60546875 3.734375 C0 2 0 2 0 0 Z " fill="#2E5F96" transform="translate(260,492)"/>
<path d="M0 0 C1.22357996 3.67073989 0.35179033 4.93834206 -1.29907227 8.29321289 C-1.65412842 8.98020264 -2.00918457 9.66719238 -2.375 10.375 C-2.737146 11.08454834 -3.09929199 11.79409668 -3.47241211 12.52514648 C-8.64865635 22.42458898 -14.71435698 31.41951809 -23 39 C-23 35.28070255 -22.1865415 34.81071748 -19.6875 32.1875 C-16.71152952 28.92839062 -14.72022368 26.04758513 -13 22 C-12.34 22 -11.68 22 -11 22 C-10.7834375 21.071875 -10.7834375 21.071875 -10.5625 20.125 C-10 18 -10 18 -9 16 C-8.34 16 -7.68 16 -7 16 C-7 15.01 -7 14.02 -7 13 C-6.34 13 -5.68 13 -5 13 C-5.061875 12.236875 -5.12375 11.47375 -5.1875 10.6875 C-4.96125194 7.44461116 -4.30238001 7.12527385 -2 5 C-0.80972016 2.40084462 -0.80972016 2.40084462 0 0 Z " fill="#4581CC" transform="translate(842,780)"/>
<path d="M0 0 C0.33 1.32 0.66 2.64 1 4 C-0.36767578 5.96704102 -0.36767578 5.96704102 -2.4453125 8.00390625 C-3.19296875 8.74447266 -3.940625 9.48503906 -4.7109375 10.24804688 C-5.50757813 11.01181641 -6.30421875 11.77558594 -7.125 12.5625 C-8.28515625 13.71395508 -8.28515625 13.71395508 -9.46875 14.88867188 C-13.09474503 18.4373206 -16.43220713 21.68585954 -21 24 C-21.66 23.67 -22.32 23.34 -23 23 C-15.41 15.41 -7.82 7.82 0 0 Z " fill="#32639B" transform="translate(476,477)"/>
<path d="M0 0 C0.33 0 0.66 0 1 0 C1.0745935 5.12285234 1.12881017 10.24538304 1.16479492 15.36865234 C1.17980854 17.10861728 1.20022577 18.84854484 1.22631836 20.58837891 C1.26303107 23.1006802 1.27980069 25.6124778 1.29296875 28.125 C1.30845261 28.89303955 1.32393646 29.6610791 1.33988953 30.45239258 C1.34157198 35.94810017 0.15492136 39.9418069 -2 45 C-2.57393666 46.66276298 -3.1390867 48.32864519 -3.6875 50 C-3.93886719 50.763125 -4.19023438 51.52625 -4.44921875 52.3125 C-4.63097656 52.869375 -4.81273437 53.42625 -5 54 C-6.19126781 50.42619658 -5.7349445 48.49116698 -5.0625 44.8125 C-4.86785156 43.72582031 -4.67320312 42.63914062 -4.47265625 41.51953125 C-4.31667969 40.68808594 -4.16070313 39.85664062 -4 39 C-3.34 39 -2.68 39 -2 39 C-2.020625 37.7625 -2.04125 36.525 -2.0625 35.25 C-2.0980123 33.11926199 -2.08850332 31.31669259 -1.51367188 29.25976562 C-0.86093037 26.3881994 -0.78077743 23.64640212 -0.68359375 20.703125 C-0.64169922 19.49785156 -0.59980469 18.29257812 -0.55664062 17.05078125 C-0.51732422 15.79652344 -0.47800781 14.54226563 -0.4375 13.25 C-0.37272461 11.34541016 -0.37272461 11.34541016 -0.30664062 9.40234375 C-0.20060278 6.26833635 -0.09853942 3.13425067 0 0 Z " fill="#397BCB" transform="translate(849,726)"/>
<path d="M0 0 C0.66 0.33 1.32 0.66 2 1 C-3.56145035 7.41604673 -9.20080448 13.85388584 -16 19 C-16.66 19 -17.32 19 -18 19 C-18.2475 19.5775 -18.495 20.155 -18.75 20.75 C-20.16683317 23.3002997 -21.87627537 25.01785701 -24 27 C-22.55246163 22.5101776 -20.25883563 19.7472997 -17.0625 16.3125 C-16.58321045 15.79719727 -16.1039209 15.28189453 -15.61010742 14.75097656 C-10.68216516 9.52721346 -5.40438243 4.72491462 0 0 Z " fill="#4182D1" transform="translate(41,20)"/>
<path d="M0 0 C0.66 0.99 1.32 1.98 2 3 C1.319375 3.495 0.63875 3.99 -0.0625 4.5 C-3.18719411 7.15931413 -5.66494226 10.02637274 -8.25390625 13.1953125 C-10.05855803 15.06052306 -11.62697717 15.99263363 -14 17 C-14 17.66 -14 18.32 -14 19 C-14.66 19 -15.32 19 -16 19 C-16 19.66 -16 20.32 -16 21 C-17.32 20.67 -18.64 20.34 -20 20 C-13.4 13.4 -6.8 6.8 0 0 Z " fill="#2A5D97" transform="translate(559,393)"/>
<path d="M0 0 C-1.48224144 3.58942793 -3.48520541 5.51793952 -6.4375 8 C-8.8018346 9.99429871 -10.821352 11.75787941 -12.66015625 14.25 C-13.10230469 14.8275 -13.54445313 15.405 -14 16 C-14.66 16 -15.32 16 -16 16 C-16.33 16.99 -16.66 17.98 -17 19 C-18.32 18.67 -19.64 18.34 -21 18 C-20.31164062 17.31550781 -19.62328125 16.63101563 -18.9140625 15.92578125 C-16.84592032 13.85982527 -14.8048648 11.77000716 -12.7734375 9.66796875 C-11.64071991 8.50771983 -10.50790612 7.34756483 -9.375 6.1875 C-8.80265625 5.59001953 -8.2303125 4.99253906 -7.640625 4.37695312 C-3.33870536 0 -3.33870536 0 0 0 Z " fill="#2F6098" transform="translate(385,572)"/>
<path d="M0 0 C0.33 1.32 0.66 2.64 1 4 C-0.06155004 4.9177666 -1.12429679 5.83414905 -2.1875 6.75 C-3.14849609 7.57951172 -3.14849609 7.57951172 -4.12890625 8.42578125 C-5.58406374 9.6500578 -7.09496823 10.80819084 -8.625 11.9375 C-10.78585346 13.81403064 -11.95752141 15.33066936 -13.5 17.6875 C-15.27862292 20.33002548 -15.66610432 20.88870144 -18.8125 21.9375 C-19.534375 21.958125 -20.25625 21.97875 -21 22 C-16.61557474 16.74825074 -11.99157907 11.86777527 -7.125 7.0625 C-6.43664062 6.37865234 -5.74828125 5.69480469 -5.0390625 4.99023438 C-3.36166489 3.32448536 -1.68196209 1.6611378 0 0 Z " fill="#3C689B" transform="translate(633,318)"/>
<path d="M0 0 C2.64 0.66 5.28 1.32 8 2 C8 2.66 8 3.32 8 4 C9.03447266 4.18175781 9.03447266 4.18175781 10.08984375 4.3671875 C14.77586842 5.20282976 19.45999257 6.05347675 24.125 7 C25.21167969 7.2165625 25.21167969 7.2165625 26.3203125 7.4375 C28 8 28 8 29 10 C19.33331757 9.5450973 10.15352561 7.0511752 1 4 C0.67 2.68 0.34 1.36 0 0 Z " fill="#548DD2" transform="translate(62,840)"/>
<path d="M0 0 C0.99 0.495 0.99 0.495 2 1 C2.6328125 3.06640625 2.6328125 3.06640625 3.125 5.5625 C3.29257812 6.38878906 3.46015625 7.21507813 3.6328125 8.06640625 C3.75398437 8.70449219 3.87515625 9.34257813 4 10 C4.66 10 5.32 10 6 10 C7.03590199 15.05002222 7.10251672 19.87416389 7 25 C3.96052688 22.51845756 3.42454194 20.44372324 2.8125 16.625 C2.65394531 15.68914062 2.49539063 14.75328125 2.33203125 13.7890625 C2.01898677 11.15948884 1.93748736 8.64476541 2 6 C1.34 6 0.68 6 0 6 C0 4.02 0 2.04 0 0 Z " fill="#5F97D6" transform="translate(843,71)"/>
<path d="M0 0 C1.32 0 2.64 0 4 0 C4 0.66 4 1.32 4 2 C4.82242188 2.08507812 5.64484375 2.17015625 6.4921875 2.2578125 C10.79135088 3.16743504 14.24408828 4.86614217 18.125 6.875 C18.82753906 7.22691406 19.53007813 7.57882813 20.25390625 7.94140625 C23.74040381 9.71431333 26.96534309 11.49994586 30 14 C25.20650365 13.3880643 21.51614613 11.35209728 17.3125 9.125 C11.35205837 6.04370845 5.57269473 3.51677571 -1 2 C-0.67 1.34 -0.34 0.68 0 0 Z " fill="#538CCF" transform="translate(770,2)"/>
<path d="M0 0 C3.46629835 1.48653506 5.69022036 3.45722351 8.328125 6.1328125 C9.12734375 6.93847656 9.9265625 7.74414062 10.75 8.57421875 C11.575 9.41597656 12.4 10.25773437 13.25 11.125 C14.51070312 12.39923828 14.51070312 12.39923828 15.796875 13.69921875 C17.86915683 15.79504923 19.93662393 17.89540713 22 20 C21.34 20.66 20.68 21.32 20 22 C5.03416856 7.40318907 5.03416856 7.40318907 0 0 Z " fill="#35659A" transform="translate(602,282)"/>
<path d="M0 0 C0.66 0.33 1.32 0.66 2 1 C-4.47251453 8.83514917 -11.77773464 15.86788775 -19 23 C-19.33 22.01 -19.66 21.02 -20 20 C-19.34 20 -18.68 20 -18 20 C-17.34 18.68 -16.68 17.36 -16 16 C-15.34 16 -14.68 16 -14 16 C-14 15.34 -14 14.68 -14 14 C-13.34 14 -12.68 14 -12 14 C-12 13.34 -12 12.68 -12 12 C-11.34 12 -10.68 12 -10 12 C-10 11.34 -10 10.68 -10 10 C-9.34 10 -8.68 10 -8 10 C-8 9.34 -8 8.68 -8 8 C-7.34 8 -6.68 8 -6 8 C-6 7.34 -6 6.68 -6 6 C-5.34 6 -4.68 6 -4 6 C-4 5.34 -4 4.68 -4 4 C-3.34 4 -2.68 4 -2 4 C-2 3.34 -2 2.68 -2 2 C-1.34 2 -0.68 2 0 2 C0 1.34 0 0.68 0 0 Z " fill="#CFE5F0" transform="translate(445,506)"/>
<path d="M0 0 C0.66 0.33 1.32 0.66 2 1 C-3.93187807 7.55995928 -10.52390603 12.31498111 -18 17 C-18.33 16.01 -18.66 15.02 -19 14 C-18.01 13.67 -17.02 13.34 -16 13 C-15.34 12.319375 -14.68 11.63875 -14 10.9375 C-12 9 -12 9 -9 9 C-8.938125 8.38125 -8.87625 7.7625 -8.8125 7.125 C-8 5 -8 5 -5.625 3.9375 C-4.75875 3.628125 -3.8925 3.31875 -3 3 C-1.22722741 1.47992158 -1.22722741 1.47992158 0 0 Z " fill="#4682CF" transform="translate(816,819)"/>
<path d="M0 0 C0.99 0.33 1.98 0.66 3 1 C-3.6 7.6 -10.2 14.2 -17 21 C-17.33 20.01 -17.66 19.02 -18 18 C-17.34 18 -16.68 18 -16 18 C-16 17.34 -16 16.68 -16 16 C-15.34 16 -14.68 16 -14 16 C-13.34 14.68 -12.68 13.36 -12 12 C-11.34 12 -10.68 12 -10 12 C-10 11.34 -10 10.68 -10 10 C-9.34 10 -8.68 10 -8 10 C-8 9.34 -8 8.68 -8 8 C-7.34 8 -6.68 8 -6 8 C-6 7.34 -6 6.68 -6 6 C-5.34 6 -4.68 6 -4 6 C-4 5.34 -4 4.68 -4 4 C-3.34 4 -2.68 4 -2 4 C-2 3.34 -2 2.68 -2 2 C-1.34 2 -0.68 2 0 2 C0 1.34 0 0.68 0 0 Z " fill="#DAEFFB" transform="translate(419,532)"/>
<path d="M0 0 C0.66 0.33 1.32 0.66 2 1 C-0.99440571 4.36691551 -3.69848716 5.97777483 -7.875 7.625 C-8.88304687 8.02976562 -9.89109375 8.43453125 -10.9296875 8.8515625 C-12.44949219 9.42003906 -12.44949219 9.42003906 -14 10 C-15.03382813 10.39960937 -16.06765625 10.79921875 -17.1328125 11.2109375 C-20.00347036 12.00095506 -21.26948627 12.05019759 -24 11 C-23.02160156 10.62488281 -22.04320312 10.24976563 -21.03515625 9.86328125 C-14.284434 7.23862249 -7.81045159 4.63050985 -1.63671875 0.78515625 C-1.09660156 0.52605469 -0.55648437 0.26695312 0 0 Z " fill="#D3ECFA" transform="translate(798,835)"/>
<path d="M0 0 C0 3.67819168 -0.76843318 4.22382655 -3.1875 6.875 C-3.826875 7.57882812 -4.46625 8.28265625 -5.125 9.0078125 C-7.36813748 11.39114607 -9.65419398 13.71759414 -12 16 C-12.763125 16.763125 -13.52625 17.52625 -14.3125 18.3125 C-14.869375 18.869375 -15.42625 19.42625 -16 20 C-16.99 19.67 -17.98 19.34 -19 19 C-12.73 12.73 -6.46 6.46 0 0 Z " fill="#DDEFFA" transform="translate(430,409)"/>
<path d="M0 0 C0 3.60821801 -0.56810315 3.9609357 -2.9921875 6.46875 C-3.61480469 7.12230469 -4.23742187 7.77585937 -4.87890625 8.44921875 C-5.86697266 9.46435547 -5.86697266 9.46435547 -6.875 10.5 C-8.16588007 11.84200404 -9.45501459 13.18568986 -10.7421875 14.53125 C-11.3182373 15.12486328 -11.89428711 15.71847656 -12.48779297 16.33007812 C-14.19508547 18.1330152 -14.19508547 18.1330152 -16 21 C-16.66 20.01 -17.32 19.02 -18 18 C-12.06 12.06 -6.12 6.12 0 0 Z " fill="#E1F3FB" transform="translate(231,425)"/>
<path d="M0 0 C0 4.42891454 -2.84924563 6.45758089 -5.75 9.5 C-6.55824219 10.37205078 -6.55824219 10.37205078 -7.3828125 11.26171875 C-10.08274157 14.13944803 -12.71926055 16.77037125 -16 19 C-16.66 18.67 -17.32 18.34 -18 18 C-12.06 12.06 -6.12 6.12 0 0 Z " fill="#E6F6FB" transform="translate(381,459)"/>
<path d="M0 0 C2.93230193 1.32120828 4.98664899 2.74638197 7.234375 5.0390625 C8.09482422 5.90917969 8.09482422 5.90917969 8.97265625 6.796875 C9.55917969 7.40015625 10.14570313 8.0034375 10.75 8.625 C11.35199219 9.23601562 11.95398438 9.84703125 12.57421875 10.4765625 C14.05405305 11.97988624 15.52764676 13.48934856 17 15 C16.34 15.66 15.68 16.32 15 17 C12.49195282 14.54976242 9.9949924 12.08852402 7.5 9.625 C6.78457031 8.92632812 6.06914062 8.22765625 5.33203125 7.5078125 C4.65527344 6.8375 3.97851562 6.1671875 3.28125 5.4765625 C2.65283203 4.85861816 2.02441406 4.24067383 1.37695312 3.60400391 C0 2 0 2 0 0 Z " fill="#38659C" transform="translate(345,460)"/>
<path d="M0 0 C0.33 0 0.66 0 1 0 C0.64255681 7.91736657 -0.80990135 15.70677447 -4 23 C-4.99 23.33 -5.98 23.66 -7 24 C-6.82984375 23.44054687 -6.6596875 22.88109375 -6.484375 22.3046875 C-4.24392676 14.89214065 -2.11457447 7.44931312 0 0 Z " fill="#D3ECFA" transform="translate(848,764)"/>
<path d="M0 0 C5.33333333 5.33333333 10.66666667 10.66666667 16 16 C15.34 16.66 14.68 17.32 14 18 C10.20301511 15.14720318 7.19791388 12.10690995 4.1875 8.4375 C3.39730469 7.48746094 2.60710937 6.53742188 1.79296875 5.55859375 C0 3 0 3 0 0 Z " fill="#316298" transform="translate(212,442)"/>
<path d="M0 0 C0.33 0.66 0.66 1.32 1 2 C-1.16252661 6.86568488 -4.93525257 9.75933835 -9 13 C-9.66 12.34 -10.32 11.68 -11 11 C-7.37 7.37 -3.74 3.74 0 0 Z " fill="#39699F" transform="translate(538,414)"/>
<path d="M0 0 C0.99 0.33 1.98 0.66 3 1 C-1.62 5.62 -6.24 10.24 -11 15 C-11.33 14.01 -11.66 13.02 -12 12 C-11.01 11.67 -10.02 11.34 -9 11 C-8.71125 10.4225 -8.4225 9.845 -8.125 9.25 C-6.60387378 6.20774755 -4.51286104 4.26157493 -2 2 C-1.34 2 -0.68 2 0 2 C0 1.34 0 0.68 0 0 Z " fill="#E3F4FE" transform="translate(495,455)"/>
<path d="M0 0 C0.33 0 0.66 0 1 0 C1.34060387 4.54138497 0.5422614 7.70815883 -1.1328125 11.83203125 C-2.59735305 15.49338263 -3.77685914 19.25250461 -5 23 C-6.19126781 19.42619658 -5.7349445 17.49116698 -5.0625 13.8125 C-4.86785156 12.72582031 -4.67320312 11.63914062 -4.47265625 10.51953125 C-4.31667969 9.68808594 -4.16070313 8.85664062 -4 8 C-3.34 8 -2.68 8 -2 8 C-1.34 5.36 -0.68 2.72 0 0 Z " fill="#5A91D2" transform="translate(849,757)"/>
<path d="M0 0 C0 3.92709135 -1.27900462 4.8189713 -3.875 7.6875 C-4.59429687 8.49574219 -5.31359375 9.30398438 -6.0546875 10.13671875 C-8 12 -8 12 -10 12 C-10.66 13.32 -11.32 14.64 -12 16 C-12.66 16 -13.32 16 -14 16 C-14 15.34 -14 14.68 -14 14 C-13.34 14 -12.68 14 -12 14 C-11.66355469 13.17242187 -11.66355469 13.17242187 -11.3203125 12.328125 C-9.59614817 9.28788256 -7.37484178 7.18574327 -4.875 4.75 C-3.96492188 3.85796875 -3.05484375 2.9659375 -2.1171875 2.046875 C-1.41851562 1.37140625 -0.71984375 0.6959375 0 0 Z " fill="#CBE0EE" transform="translate(468,370)"/>
<path d="M0 0 C0.99 0.33 1.98 0.66 3 1 C2.34 1 1.68 1 1 1 C1 1.99 1 2.98 1 4 C-0.72807318 4.33895656 -2.45751974 4.67091525 -4.1875 5 C-5.63189453 5.2784375 -5.63189453 5.2784375 -7.10546875 5.5625 C-9.7934206 5.96877612 -12.28771019 6.07933572 -15 6 C-12.55483149 3.55483149 -10.82921693 3.27418478 -7.5 2.4375 C-3.6475828 1.49319669 -3.6475828 1.49319669 0 0 Z " fill="#558DD1" transform="translate(773,844)"/>
<path d="M0 0 C4.42857143 5.14285714 4.42857143 5.14285714 5 9 C5.66 9 6.32 9 7 9 C6.67 10.32 6.34 11.64 6 13 C2.46730171 9.09543873 0.36144033 6.19822672 -1 1 C-0.67 0.67 -0.34 0.34 0 0 Z " fill="#76A9DB" transform="translate(10,791)"/>
<path d="M0 0 C1 2 1 2 0.375 3.9375 C-1.36900377 6.55350565 -3.29125884 7.42515049 -6 9 C-7.7041054 10.62836738 -9.38025441 12.28769752 -11 14 C-11.66 13.67 -12.32 13.34 -13 13 C-8.71 8.71 -4.42 4.42 0 0 Z " fill="#CDE9FB" transform="translate(823,814)"/>
<path d="M0 0 C3.21524305 1.40844718 5.32183868 3.10344786 7.75 5.625 C8.67039063 6.57246094 8.67039063 6.57246094 9.609375 7.5390625 C10.29773438 8.26222656 10.29773438 8.26222656 11 9 C10.34 9.66 9.68 10.32 9 11 C1.33257403 5.03416856 1.33257403 5.03416856 0 0 Z " fill="#2E5D93" transform="translate(229,461)"/>
<path d="M0 0 C0.99 0.33 1.98 0.66 3 1 C-0.3 4.3 -3.6 7.6 -7 11 C-7.33 10.01 -7.66 9.02 -8 8 C-5.36 5.36 -2.72 2.72 0 0 Z " fill="#DAECF7" transform="translate(477,361)"/>
<path d="M0 0 C0.33 0.99 0.66 1.98 1 3 C-2.3 5.97 -5.6 8.94 -9 12 C-9.66 11.67 -10.32 11.34 -11 11 C-7.37 7.37 -3.74 3.74 0 0 Z " fill="#D2E7F7" transform="translate(538,299)"/>
<path d="M0 0 C0.99 0.33 1.98 0.66 3 1 C-0.3 4.3 -3.6 7.6 -7 11 C-7.33 10.01 -7.66 9.02 -8 8 C-7.38125 7.7525 -6.7625 7.505 -6.125 7.25 C-3.61104784 5.77120461 -3.1465949 4.62078835 -2 2 C-1.34 1.34 -0.68 0.68 0 0 Z " fill="#DBEEF8" transform="translate(507,443)"/>
<path d="M0 0 C0.66 0.99 1.32 1.98 2 3 C0.02 3.99 0.02 3.99 -2 5 C-2 5.66 -2 6.32 -2 7 C-2.66 7 -3.32 7 -4 7 C-4 7.66 -4 8.32 -4 9 C-5.32 8.67 -6.64 8.34 -8 8 C-5.36 5.36 -2.72 2.72 0 0 Z " fill="#35669C" transform="translate(547,405)"/>
<path d="M0 0 C0.99 0 1.98 0 3 0 C1.61811547 3.21043882 0.07578097 5.04936365 -2.625 7.25 C-3.57246094 8.03117187 -3.57246094 8.03117187 -4.5390625 8.828125 C-5.02117188 9.21484375 -5.50328125 9.6015625 -6 10 C-6 8.68 -6 7.36 -6 6 C-5.34 6 -4.68 6 -4 6 C-3.67 5.01 -3.34 4.02 -3 3 C-2.01 3 -1.02 3 0 3 C0 2.01 0 1.02 0 0 Z " fill="#2E5E95" transform="translate(557,276)"/>
<path d="M0 0 C0 3.96130371 -1.34877125 4.82914401 -4 7.6875 C-4.7425 8.49574219 -5.485 9.30398438 -6.25 10.13671875 C-6.8275 10.75160156 -7.405 11.36648438 -8 12 C-8.99 11.67 -9.98 11.34 -11 11 C-7.37 7.37 -3.74 3.74 0 0 Z " fill="#275992" transform="translate(508,445)"/>
<path d="M0 0 C0.33 1.32 0.66 2.64 1 4 C-1.31 5.98 -3.62 7.96 -6 10 C-5.58578031 5.16743695 -3.53586014 3.17320782 0 0 Z " fill="#2F639D" transform="translate(633,318)"/>
<path d="M0 0 C0.99 0.33 1.98 0.66 3 1 C1.625 3 1.625 3 0 5 C-0.66 5 -1.32 5 -2 5 C-2.33 5.99 -2.66 6.98 -3 8 C-4.32 7.67 -5.64 7.34 -7 7 C-4.66666667 4.66666667 -2.33333333 2.33333333 0 0 Z " fill="#36679F" transform="translate(371,583)"/>
<path d="M0 0 C0.33 1.32 0.66 2.64 1 4 C-0.6875 6.3125 -0.6875 6.3125 -3 8 C-4.32 7.67 -5.64 7.34 -7 7 C-4.69 4.69 -2.38 2.38 0 0 Z " fill="#3E6DA3" transform="translate(611,340)"/>
<path d="M0 0 C0 0.66 0 1.32 0 2 C-4.92737019 3.97094808 -8.78020872 4.1799928 -14 4 C-9.52281208 1.01520806 -5.36175907 0 0 0 Z " fill="#79A7DA" transform="translate(80,2)"/>
<path d="M0 0 C0 3.58912412 -0.66436554 4.10857029 -3 6.6875 C-3.556875 7.31011719 -4.11375 7.93273437 -4.6875 8.57421875 C-5.120625 9.04472656 -5.55375 9.51523437 -6 10 C-6.99 9.67 -7.98 9.34 -9 9 C-6.03 6.03 -3.06 3.06 0 0 Z " fill="#255791" transform="translate(586,366)"/>
<path d="M0 0 C0.33 0.99 0.66 1.98 1 3 C0.01 3.33 -0.98 3.66 -2 4 C-2.68486725 5.32407669 -3.34870203 6.65909241 -4 8 C-5.29470975 9.37086915 -6.62150897 10.71340837 -8 12 C-6.49087042 7.01987239 -3.44338151 3.75740058 0 0 Z " fill="#578DCC" transform="translate(25,35)"/>
<path d="M0 0 C3.7952131 1.49097658 5.61042731 3.75700849 8 7 C5 7 5 7 2.3125 4.625 C0 2 0 2 0 0 Z " fill="#2B5D96" transform="translate(629,309)"/>
<path d="M0 0 C3.26941682 0.94641013 4.66822278 1.41184947 6.375 4.4375 C7 7 7 7 6 10 C4.99723227 8.52270825 3.99785546 7.04311423 3 5.5625 C2.443125 4.73878906 1.88625 3.91507813 1.3125 3.06640625 C0 1 0 1 0 0 Z " fill="#DBF4FD" transform="translate(826,38)"/>
<path d="M0 0 C0.33 0.99 0.66 1.98 1 3 C-1.97 5.475 -1.97 5.475 -5 8 C-5.66 7.67 -6.32 7.34 -7 7 C-4.69 4.69 -2.38 2.38 0 0 Z " fill="#CDE2F1" transform="translate(406,433)"/>
<path d="M0 0 C3.72114571 2.31537955 6.61229661 4.28579473 9 8 C7.0625 7.6875 7.0625 7.6875 5 7 C4.67 6.01 4.34 5.02 4 4 C1.99983534 2.79117904 1.99983534 2.79117904 0 2 C0 1.34 0 0.68 0 0 Z " fill="#4B85CB" transform="translate(806,20)"/>
<path d="M0 0 C0.33 0.66 0.66 1.32 1 2 C-1.47812494 5.45167403 -2.79606135 7.23163306 -7 8 C-6.02133662 6.85373678 -5.04205413 5.70800212 -4.0625 4.5625 C-3.51722656 3.92441406 -2.97195313 3.28632813 -2.41015625 2.62890625 C-1.63204305 1.73008851 -0.84063472 0.84063472 0 0 Z " fill="#2C5C93" transform="translate(496,457)"/>
<path d="M0 0 C1.32 0.66 2.64 1.32 4 2 C3.4225 2.0825 2.845 2.165 2.25 2.25 C-0.6159304 3.20531013 -1.9990764 4.78469173 -4 7 C-4.66 6.67 -5.32 6.34 -6 6 C-4.02 4.02 -2.04 2.04 0 0 Z " fill="#E5F8FB" transform="translate(269,387)"/>
<path d="M0 0 C0.99 0.33 1.98 0.66 3 1 C-0.465 3.97 -0.465 3.97 -4 7 C-3.04065919 3.16263678 -2.76390737 2.40339772 0 0 Z " fill="#E7F8FF" transform="translate(480,470)"/>
<path d="M0 0 C0.99 0.33 1.98 0.66 3 1 C-0.465 3.97 -0.465 3.97 -4 7 C-4.33 6.01 -4.66 5.02 -5 4 C-4.01 4 -3.02 4 -2 4 C-2 3.34 -2 2.68 -2 2 C-1.34 2 -0.68 2 0 2 C0 1.34 0 0.68 0 0 Z " fill="#CEE4F0" transform="translate(593,356)"/>
<path d="M0 0 C4.28359673 1.8855148 6.15103592 4.35965701 9 8 C8.01 8 7.02 8 6 8 C4.39453125 6.25 4.39453125 6.25 2.8125 4 C2.28269531 3.2575 1.75289062 2.515 1.20703125 1.75 C0.80871094 1.1725 0.41039062 0.595 0 0 Z " fill="#2B5D96" transform="translate(602,282)"/>
<path d="M0 0 C0.99 0.33 1.98 0.66 3 1 C-0.465 3.97 -0.465 3.97 -4 7 C-4 6.01 -4 5.02 -4 4 C-3.34 4 -2.68 4 -2 4 C-1.34 2.68 -0.68 1.36 0 0 Z " fill="#EAFCFF" transform="translate(549,400)"/>
<path d="M0 0 C2.46800047 1.15173355 4.04783565 2.04783565 6 4 C5.67 4.99 5.34 5.98 5 7 C3.29115995 5.37660195 1.62553283 3.70680947 0 2 C0 1.34 0 0.68 0 0 Z " fill="#2A5D97" transform="translate(275,390)"/>
<path d="M0 0 C-0.33 0.99 -0.66 1.98 -1 3 C-1.99 3 -2.98 3 -4 3 C-4 3.66 -4 4.32 -4 5 C-5.32 4.67 -6.64 4.34 -8 4 C-2.25 0 -2.25 0 0 0 Z " fill="#518ACE" transform="translate(57,11)"/>
</svg>
